# xmcd
#
# Track frame offsets:
#	150
#	12350
#	31524
#	46653
#	71848
#	96799
#	112543
#	136992
#	151940
#	173337
#	189944
#
# Disc length: 2780 seconds
#
# Revision: 1
# Processed by: cddbd v1.5.2PL0 Copyright (c) Steve Scherf et al.
# Submitted via: audiograbber 1.83.01
#
DISCID=710ada0b
DTITLE=The Sibleys - The Sibleys
DYEAR=1900
DGENRE=
TTITLE0=Its Your Family
TTITLE1=Cowboy Wedding
TTITLE2=A Band Named Dog
TTITLE3=Sophia Loren
TTITLE4=Puff is Dead
TTITLE5=Dancing with the Stars
TTITLE6=Crown
TTITLE7=Can I borrow Your Guillotine
TTITLE8=Waiting at the End of the World
TTITLE9=Tatoo Artist
TTITLE10=I Live Alone
EXTD=
EXTT0=
EXTT1=
EXTT2=
EXTT3=
EXTT4=
EXTT5=
EXTT6=
EXTT7=
EXTT8=
EXTT9=
EXTT10=
PLAYORDER=
